<svg aria-hidden="true" style="width:0;height:0;position:absolute;overflow:hidden" xmlns="http://www.w3.org/2000/svg"><defs><symbol id="icon-arrow-up" viewBox="0 0 45 32"><path d="M24.899 3.126a3.198 3.198 0 0 0-4.993-.007l-.005.006L1.613 26.002a3.2 3.2 0 0 0 2.5 5.197h36.576a3.2 3.2 0 0 0 2.491-5.203l.005.006L24.903 3.125z"/></symbol><symbol id="icon-bad" viewBox="0 0 34 32"><path d="M1.661 18.159a1.524 1.524 0 0 0 1.519 1.65h2.916c.842 0 1.524-.682 1.524-1.524V3.047c0-.842-.682-1.524-1.524-1.524H4.45c-.797 0-1.451.612-1.518 1.392v.006L1.663 18.159h-.001zM12.19 18c0 .637.396 1.207.971 1.478 1.256.593 3.397 1.784 4.362 3.394 1.244 2.075 1.478 5.825 1.516 6.683.006.12.003.241.019.36.206 1.488 3.078-.25 4.179-2.088.598-.997.674-2.306.612-3.33-.069-1.093-.389-2.151-.703-3.201l-.67-2.238h8.272a1.525 1.525 0 0 0 1.464-1.949l.003.011-4.091-14.488a1.527 1.527 0 0 0-1.466-1.109H13.715c-.842 0-1.524.682-1.524 1.524v14.952z"/></symbol><symbol id="icon-cool" viewBox="0 0 32 32"><path d="M2.787 14.111a1.333 1.333 0 0 1 1.328-1.444h2.551c.736 0 1.333.597 1.333 1.333v13.333c0 .736-.597 1.333-1.333 1.333h-1.44c-.697 0-1.27-.535-1.328-1.218v-.005L2.787 14.11h-.001zM12 14.25c0-.557.347-1.056.85-1.293 1.099-.519 2.972-1.561 3.817-2.969 1.089-1.816 1.293-5.097 1.327-5.848.005-.105.003-.211.017-.315.18-1.302 2.693.219 3.657 1.827.523.872.59 2.018.535 2.913-.06.957-.34 1.882-.615 2.801l-.587 1.958h7.238a1.334 1.334 0 0 1 1.281 1.705l.002-.009-3.58 12.677a1.336 1.336 0 0 1-1.283.971H13.334a1.333 1.333 0 0 1-1.333-1.333V14.252z"/></symbol><symbol id="icon-arrow-down" viewBox="0 0 45 32"><path d="M24.899 28.874c-.591.735-1.491 1.201-2.499 1.201s-1.908-.466-2.494-1.195l-.005-.006L1.613 5.997A3.2 3.2 0 0 1 4.113.8h36.576a3.2 3.2 0 0 1 2.491 5.203l.005-.006-18.282 22.877z"/></symbol><symbol id="icon-menu-open" viewBox="0 0 48 32"><path d="M45.467 13.333H2.534c-1.399 0-2.533.681-2.533 1.52v.16c0 .839 1.134 1.52 2.533 1.52h42.933c1.399 0 2.533-.681 2.533-1.52v-.16c0-.839-1.134-1.52-2.533-1.52zm0 13.334H2.534c-1.399 0-2.533.681-2.533 1.52v.16c0 .839 1.134 1.52 2.533 1.52h42.933c1.399 0 2.533-.681 2.533-1.52v-.16c0-.839-1.134-1.52-2.533-1.52zm0-26.667H2.534C1.135 0 .001.681.001 1.52v.16c0 .839 1.134 1.52 2.533 1.52h42.933C46.866 3.2 48 2.519 48 1.68v-.16C48 .681 46.866 0 45.467 0z"/></symbol><symbol id="icon-menu-close" viewBox="0 0 32 32"><path d="M29.629 30.222 2.37 1.778m27.259 0L2.37 30.222"/></symbol><symbol id="icon-instagram" viewBox="0 0 32 32"><path d="M32 2a2 2 0 1 1-3.999.001A2 2 0 0 1 32 2zM16 30C8.268 30 2 23.732 2 16S8.268 2 16 2s14 6.268 14 14-6.268 14-14 14zm0-4.667a9.333 9.333 0 1 0 0-18.666 9.333 9.333 0 1 0 0 18.666z"/></symbol><symbol id="icon-modal-close" viewBox="0 0 32 32"><path d="M21.294 10.706 10.706 21.294m0-10.588 10.588 10.588M16 30.706c8.122 0 14.706-6.584 14.706-14.706S24.122 1.294 16 1.294 1.294 7.878 1.294 16 7.878 30.706 16 30.706z"/></symbol><symbol id="icon-facebook" viewBox="0 0 19 32"><path d="M18.667 10.363h-5.904V7.04c0-1.248.963-1.539 1.643-1.539h4.165V.018l-5.736-.019c-6.371 0-7.821 4.091-7.821 6.707v3.653h-3.68v5.653h3.68v15.987h7.749V16.01h5.227l.677-5.648z"/></symbol><symbol id="icon-youtube" viewBox="0 0 43 32"><path d="M38.002.853c1.838.466 3.282 1.849 3.772 3.602.892 3.179.892 9.813.892 9.813s0 6.631-.889 9.81c-.494 1.753-1.938 3.076-3.776 3.545-3.328.853-16.668.853-16.668.853s-13.34 0-16.668-.853c-1.838-.469-3.282-1.792-3.776-3.545C0 20.899 0 14.265 0 14.265s0-6.631.889-9.81A5.245 5.245 0 0 1 4.633.861l.036-.008C7.993 0 21.334 0 21.334 0s13.34 0 16.668.853zM16.971 8.245v12.043l11.15-6.023-11.15-6.016z"/></symbol><symbol id="icon-menu-close-btn" viewBox="0 0 48 32"><path d="M0 5.334V0h48v5.334H0zm0 13.332h48v-5.332H0v5.332zM0 32h48v-5.334H0V32z"/></symbol><symbol id="icon-charm_circle-cross" viewBox="0 0 32 32"><path fill="none" stroke="#86e543" style="stroke:var(--color1,#86e543)" stroke-linejoin="round" stroke-linecap="round" stroke-width="1.2" d="m20.5 11.5-9 9m0-9 9 9M16 28.5c6.904 0 12.5-5.596 12.5-12.5S22.904 3.5 16 3.5 3.5 9.096 3.5 16 9.096 28.5 16 28.5z"/></symbol></defs></svg>