<svg width="54" height="36" viewBox="0 0 54 36" fill="none" xmlns="http://www.w3.org/2000/svg">
<path d="M51.15 15H2.85C1.27599 15 0 15.7656 0 16.71V16.89C0 17.8344 1.27599 18.6 2.85 18.6H51.15C52.724 18.6 54 17.8344 54 16.89V16.71C54 15.7656 52.724 15 51.15 15Z" fill="#86E543"/>
<path d="M51.15 30H2.85C1.27599 30 0 30.7656 0 31.71V31.89C0 32.8344 1.27599 33.6 2.85 33.6H51.15C52.724 33.6 54 32.8344 54 31.89V31.71C54 30.7656 52.724 30 51.15 30Z" fill="#86E543"/>
<path d="M51.15 0H2.85C1.27599 0 0 0.765593 0 1.71V1.89C0 2.83441 1.27599 3.6 2.85 3.6H51.15C52.724 3.6 54 2.83441 54 1.89V1.71C54 0.765593 52.724 0 51.15 0Z" fill="#86E543"/>
</svg>
